<svg width="65" height="65" viewBox="0 0 65 65" fill="none" xmlns="http://www.w3.org/2000/svg">
<path d="M35.3806 43.8089C36.1011 43.0886 36.7519 42.3018 37.3242 41.459C37.3407 41.4361 37.3559 41.4133 37.3712 41.3892C39.3109 38.4811 40.2446 35.0177 40.0296 31.5287C40.0331 31.4552 40.0284 31.3815 40.0156 31.3091C39.8691 29.3097 39.3475 27.3557 38.4782 25.5492C38.4614 25.5057 38.4419 25.4633 38.4198 25.4223C36.8645 22.2722 34.3165 19.721 31.1682 18.1618C31.1229 18.1361 31.0758 18.1136 31.0273 18.0945C29.2265 17.2282 27.2793 16.7072 25.2865 16.5584C25.212 16.5445 25.1362 16.5394 25.0605 16.5432C21.5621 16.3239 18.0886 17.2607 15.1747 19.2092L15.1353 19.2358C13.4247 20.3893 11.9534 21.8628 10.8024 23.5751C8.84665 26.4923 7.90532 29.9721 8.12372 33.4774C8.12018 33.5535 8.12487 33.6297 8.13768 33.7047C8.28689 35.6992 8.80835 37.6481 9.67509 39.4506C9.69313 39.4944 9.71434 39.5368 9.73856 39.5775C11.2948 42.7319 13.8463 45.2861 16.999 46.8456C17.0398 46.8693 17.0823 46.8901 17.126 46.9078C18.9349 47.7762 20.8909 48.2969 22.8922 48.4427C22.9451 48.451 22.9986 48.4557 23.0521 48.4566H23.0813C23.4101 48.477 23.739 48.4884 24.069 48.4884C27.2415 48.4915 30.343 47.5501 32.9786 45.7843L33.0078 45.7652C33.8593 45.1903 34.6539 44.5352 35.3806 43.8089ZM36.3086 39.2284L31.5986 34.5172L38.0224 32.797C37.9779 35.0476 37.3899 37.2541 36.3086 39.2284ZM36.0191 25.2763L29.5801 26.9978L31.3092 20.5663C33.2352 21.7357 34.8505 23.3528 36.0179 25.2801L36.0191 25.2763ZM23.791 18.5478L22.0644 24.9843L17.3443 20.2642C19.3228 19.1802 21.5342 18.5913 23.7897 18.5478H23.791ZM15.6063 21.3979L21.8727 27.6643C21.9671 27.7585 22.0792 27.8333 22.2025 27.8843C22.3258 27.9353 22.4579 27.9614 22.5913 27.9613C22.679 27.9618 22.7665 27.9511 22.8516 27.9296C23.0239 27.8835 23.181 27.7928 23.3072 27.6666C23.4333 27.5405 23.524 27.3834 23.5701 27.211L25.8629 18.662C27.097 18.8199 28.3045 19.1423 29.4531 19.6205L27.168 28.1721C27.1272 28.3225 27.1217 28.4803 27.1518 28.6333C27.1818 28.7862 27.2467 28.9302 27.3413 29.0541C27.436 29.1779 27.5578 29.2783 27.6975 29.3475C27.8372 29.4167 27.9909 29.4528 28.1468 29.453C28.2356 29.4532 28.324 29.4412 28.4096 29.4175L36.956 27.1323C37.4334 28.2812 37.7553 29.4886 37.9133 30.7226L29.3731 33.0077C29.2007 33.0537 29.0435 33.1443 28.9173 33.2704C28.7911 33.3965 28.7003 33.5536 28.6541 33.726C28.6079 33.8983 28.6079 34.0798 28.6541 34.2521C28.7003 34.4244 28.7911 34.5815 28.9174 34.7076L35.1736 40.9639C34.4171 41.954 33.532 42.8391 32.5419 43.5956L26.2856 37.3394C26.1596 37.2131 26.0024 37.1223 25.8301 37.0761C25.6578 37.0299 25.4763 37.0299 25.304 37.0761C25.1317 37.1223 24.9745 37.2131 24.8484 37.3393C24.7224 37.4655 24.6317 37.6227 24.5857 37.7951L22.3006 46.3391C21.0645 46.1826 19.8549 45.8615 18.704 45.3844L20.9891 36.8315C21.0354 36.6593 21.0354 36.4779 20.9893 36.3056C20.9432 36.1334 20.8525 35.9763 20.7264 35.8502C20.6003 35.7241 20.4432 35.6334 20.2709 35.5873C20.0986 35.5411 19.9173 35.5412 19.745 35.5874L11.1896 37.8827C10.7117 36.7322 10.3894 35.5231 10.2311 34.2874L18.7891 31.9921C18.9612 31.946 19.1182 31.8553 19.2442 31.7293C19.3702 31.6033 19.4609 31.4464 19.5071 31.2743C19.5532 31.1022 19.5533 30.9209 19.5073 30.7488C19.4613 30.5766 19.3707 30.4196 19.2448 30.2935L12.9771 24.0271C13.7337 23.0365 14.6192 22.1514 15.6101 21.3953L15.6063 21.3979ZM30.8039 44.7318C28.8309 45.815 26.6253 46.4051 24.375 46.4521L26.0965 40.0219L30.8039 44.7318ZM11.8384 25.7714L16.5598 30.4928L10.1194 32.2143C10.1643 29.9594 10.7541 27.7489 11.8384 25.7714ZM12.1291 39.7362L18.5745 38.0084L16.8492 44.45C14.9187 43.2824 13.2992 41.6652 12.1291 39.7362ZM24.0716 36.3885C24.9717 36.3889 25.8442 36.0773 26.5403 35.5067C27.2365 34.936 27.7132 34.1417 27.8894 33.2589C28.0656 32.3762 27.9303 31.4597 27.5065 30.6656C27.0828 29.8714 26.3968 29.2487 25.5654 28.9036C24.7341 28.5585 23.8088 28.5123 22.9472 28.7728C22.0856 29.0334 21.341 29.5846 20.8402 30.3326C20.3394 31.0806 20.1135 31.9791 20.2008 32.875C20.2882 33.7708 20.6834 34.6087 21.3192 35.2459C21.68 35.6083 22.109 35.8957 22.5813 36.0916C23.0537 36.2875 23.5602 36.3879 24.0716 36.3872V36.3885ZM22.7563 31.1834C23.0167 30.9233 23.3483 30.7461 23.7093 30.6744C24.0703 30.6027 24.4444 30.6397 24.7844 30.7806C25.1244 30.9215 25.415 31.16 25.6194 31.4661C25.8239 31.7721 25.933 32.1319 25.933 32.4999C25.933 32.8679 25.8239 33.2277 25.6194 33.5338C25.415 33.8398 25.1244 34.0783 24.7844 34.2192C24.4444 34.3601 24.0703 34.3971 23.7093 34.3254C23.3483 34.2537 23.0167 34.0766 22.7563 33.8164C22.5825 33.6437 22.4445 33.4383 22.3504 33.212C22.2562 32.9857 22.2078 32.7431 22.2078 32.498C22.2078 32.2529 22.2562 32.0103 22.3504 31.784C22.4445 31.5577 22.5825 31.3523 22.7563 31.1796V31.1834ZM61.9138 27.385V20.3213C61.9117 18.4923 61.1843 16.7388 59.891 15.4454C58.5977 14.1521 56.8441 13.4247 55.0151 13.4227H32.8377C29.9869 12.1123 26.8786 11.4577 23.7415 11.507C20.6044 11.5563 17.5182 12.3082 14.71 13.7075C11.9017 15.1067 9.44293 17.1177 7.51438 19.5926C5.58583 22.0674 4.2366 24.9431 3.56595 28.0081C2.89529 31.0731 2.92027 34.2494 3.63904 37.3035C4.35781 40.3576 5.75209 43.2117 7.71932 45.6559C9.68655 48.1 12.1767 50.0721 15.0066 51.4271C17.8364 52.782 20.9341 53.4853 24.0716 53.4853C25.4132 53.485 26.7518 53.3575 28.0693 53.1044H55.0151C56.8434 53.1027 58.5963 52.3761 59.8895 51.0838C61.1828 49.7915 61.9107 48.0391 61.9138 46.2108V39.1472C61.913 37.9661 61.6091 36.8049 61.0312 35.7749C60.4532 34.7448 59.6206 33.8804 58.613 33.2642C59.6207 32.6481 60.4534 31.7836 61.0313 30.7535C61.6093 29.7235 61.9131 28.5623 61.9138 27.3812V27.385ZM59.8825 39.151V41.6647H56.5881L59.5753 37.4511C59.7779 37.9936 59.882 38.568 59.8825 39.1472V39.151ZM59.4902 48.1266L56.5259 43.6959H59.8825V46.2108C59.8828 46.8682 59.7494 47.5187 59.4902 48.1228V48.1266ZM59.8825 20.3238V22.8375H56.5881L59.5753 18.6214C59.7784 19.1651 59.8824 19.7409 59.8825 20.3213V20.3238ZM54.0998 22.8375H50.3128L55.5179 15.4831C56.5887 15.5949 57.5918 16.0599 58.3692 16.8047L54.0998 22.8375ZM43.974 41.6608L48.915 34.2773H53.0512L47.8232 41.6608H43.974ZM49.2654 32.246L44.0362 24.8637H47.8232L53.0524 32.246H49.2654ZM47.8232 22.835H43.974L48.915 15.4539H53.0512L47.8232 22.835ZM42.1713 21.8777C41.6183 20.9344 40.9918 20.0361 40.2975 19.1914L42.7984 15.4539H46.4648L42.1713 21.8777ZM46.7771 32.246H45.0442C45.0337 31.3283 44.9633 30.4123 44.8335 29.5038L46.7771 32.246ZM44.9706 34.2773H46.4648L44.5123 37.1972C44.7332 36.2358 44.8863 35.2601 44.9706 34.2773ZM41.6927 43.8952L46.7708 51.0719H42.8848L39.5268 46.6933C40.3265 45.8243 41.051 44.8891 41.6927 43.8978V43.8952ZM44.0362 43.6896H47.8232L53.0524 51.0719H49.2654L44.0362 43.6896ZM50.3128 43.6896H54.082L58.2169 49.8684C57.4625 50.5295 56.5218 50.9407 55.5242 51.0452L50.3128 43.6896ZM54.0998 41.6583H50.3128L55.5179 34.3039C56.5887 34.4157 57.5918 34.8807 58.3692 35.6255L54.0998 41.6583ZM50.3128 24.8662H54.082L58.2169 31.0438C57.463 31.7058 56.5221 32.1175 55.5242 32.2219L50.3128 24.8662ZM56.5259 24.8662H59.8825V27.3812C59.8834 28.0393 59.7499 28.6908 59.4902 29.2956L56.5259 24.8662ZM40.3533 15.4539L38.8895 17.6464C38.0913 16.8505 37.2312 16.1191 36.3175 15.459L40.3533 15.4539ZM10.6641 45.9023C3.27284 38.5124 3.27284 26.4874 10.6641 19.0975C14.2213 15.5479 19.0413 13.5545 24.0665 13.5545C29.0917 13.5545 33.9117 15.5479 37.4689 19.0975C44.8589 26.4874 44.8589 38.5124 37.4689 45.9023C30.079 53.2923 18.0591 53.2923 10.6641 45.9023ZM38.0656 48.1329L40.3203 51.0744H33.8457C35.3696 50.2714 36.7887 49.2834 38.0707 48.1329H38.0656Z" fill="white"/>
</svg>
