<svg width="105" height="105" viewBox="0 0 105 105" fill="none" xmlns="http://www.w3.org/2000/svg">
<path d="M21.3281 40.6775L19.1625 38.21L53.0775 8.46875L85.8112 38.2297L83.6062 40.6611L53.0381 12.8656L21.3281 40.6775Z" fill="#2C3E50"/>
<path d="M53.0578 20.9045C57.3019 20.9045 60.7425 17.464 60.7425 13.2198C60.7425 8.97571 57.3019 5.53516 53.0578 5.53516C48.8137 5.53516 45.3731 8.97571 45.3731 13.2198C45.3731 17.464 48.8137 20.9045 53.0578 20.9045Z" fill="#2C3E50"/>
<path d="M105 36.3525H0V99.4641H105V36.3525Z" fill="#E04F5F"/>
<path d="M14.2308 73.6185C15.563 74.3043 17.6137 74.9868 19.7302 74.9868C22.0073 74.9868 23.2148 74.0418 23.2148 72.6111C23.2148 71.2429 22.1747 70.4619 19.5366 69.5202C15.8944 68.2504 13.5155 66.2324 13.5155 63.043C13.5155 59.2991 16.6392 56.4346 21.8137 56.4346C24.2878 56.4346 26.1122 56.953 27.4116 57.5404L26.3058 61.5435C25.4264 61.1202 23.8645 60.5066 21.7186 60.5066C19.5694 60.5066 18.5259 61.4811 18.5259 62.623C18.5259 64.0208 19.763 64.6377 22.5947 65.7107C26.4698 67.1446 28.2877 69.1625 28.2877 72.2535C28.2877 75.9318 25.4592 79.0555 19.4381 79.0555C16.9312 79.0555 14.4572 78.4025 13.2202 77.72L14.2308 73.6185Z" fill="white"/>
<path d="M51.7256 67.5318C51.7256 74.7243 47.3681 79.085 40.9566 79.085C34.4466 79.085 30.637 74.1697 30.637 67.9222C30.637 61.3499 34.8337 56.4346 41.3109 56.4346C48.0506 56.4346 51.7256 61.4779 51.7256 67.5318ZM35.8772 67.8271C35.8772 72.1222 37.8951 75.1475 41.2158 75.1475C44.5659 75.1475 46.4855 71.9549 46.4855 67.6958C46.4855 63.7583 44.5987 60.3754 41.183 60.3754C37.8328 60.3721 35.8772 63.5614 35.8772 67.8271Z" fill="white"/>
<path d="M54.9905 56.7959H59.9681V74.5639H68.6897V78.7311H54.9905V56.7959Z" fill="white"/>
<path d="M71.6198 57.084C73.4442 56.792 75.8165 56.6279 78.3267 56.6279C82.4939 56.6279 85.1911 57.3761 87.3075 58.9707C89.5847 60.6639 91.0153 63.3643 91.0153 67.2395C91.0153 71.4362 89.4862 74.3336 87.3731 76.1218C85.0631 78.0446 81.5489 78.9536 77.2504 78.9536C74.6812 78.9536 72.8568 78.7895 71.6198 78.6287V57.084ZM76.6007 74.9865C77.024 75.085 77.7098 75.085 78.3267 75.085C82.8154 75.1178 85.7456 72.6437 85.7456 67.4036C85.7784 62.8459 83.1075 60.4375 78.8451 60.4375C77.7393 60.4375 77.0207 60.5359 76.5975 60.6343V74.9865H76.6007Z" fill="white"/>
</svg>
